<?xml version="1.0" encoding="UTF-8"?>
<svg width="117px" height="109px" viewBox="0 0 117 109" version="1.1" xmlns="http://www.w3.org/2000/svg" xmlns:xlink="http://www.w3.org/1999/xlink">
    <!-- Generator: Sketch 48.2 (47327) - http://www.bohemiancoding.com/sketch -->
    <title>img_step</title>
    <desc>Created with Sketch.</desc>
    <defs>
        <rect id="path-1" x="4.10958904" y="4.1011236" width="47.6712329" height="59.8764045" rx="2.46575342"></rect>
        <rect id="path-2" x="0" y="0" width="47.6712329" height="59.8764045" rx="2.46575342"></rect>
    </defs>
    <g id="视觉稿" stroke="none" stroke-width="1" fill="none" fill-rule="evenodd">
        <g id="img_step">
            <g id="提示图">
                <g id="bg" transform="translate(6.000000, 32.000000)">
                    <path d="M106.712475,59.0803086 C106.902571,57.2461366 107,55.3844462 107,53.5 C107,23.9527659 83.0472341,0 53.5,0 C23.9527659,0 0,23.9527659 0,53.5 C0,55.3341263 0.0922954932,57.1466959 0.272495417,58.9333176 L106.712475,59.0803086 Z" id="Oval-4" fill="#F0F7FE"></path>
                    <path d="M96.6445149,59.0872539 C96.8790705,57.2579495 97,55.3930971 97,53.5 C97,29.4756134 77.5243866,10 53.5,10 C29.4756134,10 10,29.4756134 10,53.5 C10,55.4516958 10.1285319,57.3733713 10.3775927,59.2570237" id="Oval-4" fill="#E3F0FD"></path>
                    <path d="M81.4480531,59.1098047 C81.810099,57.2960608 82,55.4202073 82,53.5 C82,37.7598846 69.2401154,25 53.5,25 C37.7598846,25 25,37.7598846 25,53.5 C25,55.4472459 25.1952866,57.3488802 25.5673433,59.1863861" id="Oval-4" fill="#D1E6FC"></path>
                </g>
                <g id="line" transform="translate(1.000000, 84.000000)" stroke="#0071F0" stroke-linecap="round" stroke-width="2">
                    <path d="M43.3139648,23.0009766 L59.3636291,23.0009766 C59.7816915,20.7041016 60.8590495,19.5556641 62.5957031,19.5556641 C64.3323568,19.5556641 65.4158529,20.7041016 65.8461914,23.0009766 L72.2993164,23.0009766 M75.7236328,23.0009766 L77.8955078,23.0009766 M80.6938477,23.0009766 L91.5004883,23.0009766" id="Path-7"></path>
                    <path d="M0.696289062,7.01220703 L5.31103516,7.01220703 M8.29785156,7.01220703 L36.9750977,7.01220703 M40.6313477,7.01220703 L43.7709961,7.01220703 M46.7978516,7.01220703 L107.277832,7.01220703 M110.609375,7.01220703 L115.093978,7.01220703" id="Path-5"></path>
                    <path d="M16.7216797,0.531738281 L20.753418,0.531738281 M24.8950195,0.531738281 L85.8554688,0.531738281 M89.5551758,0.531738281 L93.3872255,0.531738281" id="Path-6"></path>
                </g>
                <g id="doc" transform="translate(31.000000, 21.000000)">
                    <g id="Rectangle-14-Copy">
                        <use fill="#C5E1FF" fill-rule="evenodd" xlink:href="#path-1"></use>
                        <rect stroke="#0071F0" stroke-width="1.64383562" x="4.93150685" y="4.9230414" width="46.0273973" height="58.2325689" rx="2.46575342"></rect>
                    </g>
                    <rect id="Rectangle-14-Copy" fill="#8DC2FA" opacity="0.8" x="6.57534247" y="5.74157303" width="42.739726" height="55.7752809" rx="2.46575342"></rect>
                    <g id="Rectangle-14">
                        <use fill="#FFFFFF" fill-rule="evenodd" xlink:href="#path-2"></use>
                        <rect stroke="#0071F0" stroke-width="1.64383562" x="0.821917808" y="0.821917808" width="46.0273973" height="58.2325689" rx="2.46575342"></rect>
                    </g>
                    <path d="M16.4366631,11.4831461 L40.2756657,11.4831461 C40.7286633,11.4831461 41.0958904,11.8503732 41.0958904,12.3033708 C41.0958904,12.7563684 40.7286633,13.1235955 40.2756657,13.1235955 L16.4366631,13.1235955 C15.9836655,13.1235955 15.6164384,12.7563684 15.6164384,12.3033708 C15.6164384,11.8503732 15.9836655,11.4831461 16.4366631,11.4831461 Z M16.4366631,22.1460674 L40.2756657,22.1460674 C40.7286633,22.1460674 41.0958904,22.5132945 41.0958904,22.9662921 C41.0958904,23.4192897 40.7286633,23.7865169 40.2756657,23.7865169 L16.4366631,23.7865169 C15.9836655,23.7865169 15.6164384,23.4192897 15.6164384,22.9662921 C15.6164384,22.5132945 15.9836655,22.1460674 16.4366631,22.1460674 Z M16.4366631,33.6292135 L40.2756657,33.6292135 C40.7286633,33.6292135 41.0958904,33.9964406 41.0958904,34.4494382 C41.0958904,34.9024358 40.7286633,35.2696629 40.2756657,35.2696629 L16.4366631,35.2696629 C15.9836655,35.2696629 15.6164384,34.9024358 15.6164384,34.4494382 C15.6164384,33.9964406 15.9836655,33.6292135 16.4366631,33.6292135 Z M16.4366631,45.1123596 L40.2756657,45.1123596 C40.7286633,45.1123596 41.0958904,45.4795867 41.0958904,45.9325843 C41.0958904,46.3855819 40.7286633,46.752809 40.2756657,46.752809 L16.4366631,46.752809 C15.9836655,46.752809 15.6164384,46.3855819 15.6164384,45.9325843 C15.6164384,45.4795867 15.9836655,45.1123596 16.4366631,45.1123596 Z M16.4366631,14.7640449 L31.2345698,14.7640449 C31.6875674,14.7640449 32.0547945,15.1312721 32.0547945,15.5842697 C32.0547945,16.0372673 31.6875674,16.4044944 31.2345698,16.4044944 L16.4366631,16.4044944 C15.9836655,16.4044944 15.6164384,16.0372673 15.6164384,15.5842697 C15.6164384,15.1312721 15.9836655,14.7640449 16.4366631,14.7640449 Z M16.4366631,25.4269663 L31.2345698,25.4269663 C31.6875674,25.4269663 32.0547945,25.7941934 32.0547945,26.247191 C32.0547945,26.7001886 31.6875674,27.0674157 31.2345698,27.0674157 L16.4366631,27.0674157 C15.9836655,27.0674157 15.6164384,26.7001886 15.6164384,26.247191 C15.6164384,25.7941934 15.9836655,25.4269663 16.4366631,25.4269663 Z M16.4366631,36.9101124 L31.2345698,36.9101124 C31.6875674,36.9101124 32.0547945,37.2773395 32.0547945,37.7303371 C32.0547945,38.1833347 31.6875674,38.5505618 31.2345698,38.5505618 L16.4366631,38.5505618 C15.9836655,38.5505618 15.6164384,38.1833347 15.6164384,37.7303371 C15.6164384,37.2773395 15.9836655,36.9101124 16.4366631,36.9101124 Z M16.4366631,48.3932584 L31.2345698,48.3932584 C31.6875674,48.3932584 32.0547945,48.7604855 32.0547945,49.2134831 C32.0547945,49.6664807 31.6875674,50.0337079 31.2345698,50.0337079 L16.4366631,50.0337079 C15.9836655,50.0337079 15.6164384,49.6664807 15.6164384,49.2134831 C15.6164384,48.7604855 15.9836655,48.3932584 16.4366631,48.3932584 Z M10.2739726,18.0449438 C8.23127558,18.0449438 6.57534247,16.3924218 6.57534247,14.3539326 C6.57534247,12.3154434 8.23127558,10.6629213 10.2739726,10.6629213 C12.3166696,10.6629213 13.9726027,12.3154434 13.9726027,14.3539326 C13.9726027,16.3924218 12.3166696,18.0449438 10.2739726,18.0449438 Z M10.2739726,28.7078652 C8.23127558,28.7078652 6.57534247,27.0553431 6.57534247,25.0168539 C6.57534247,22.9783647 8.23127558,21.3258427 10.2739726,21.3258427 C12.3166696,21.3258427 13.9726027,22.9783647 13.9726027,25.0168539 C13.9726027,27.0553431 12.3166696,28.7078652 10.2739726,28.7078652 Z M10.2739726,40.1910112 C8.23127558,40.1910112 6.57534247,38.5384892 6.57534247,36.5 C6.57534247,34.4615108 8.23127558,32.8089888 10.2739726,32.8089888 C12.3166696,32.8089888 13.9726027,34.4615108 13.9726027,36.5 C13.9726027,38.5384892 12.3166696,40.1910112 10.2739726,40.1910112 Z M10.2739726,51.6741573 C8.23127558,51.6741573 6.57534247,50.0216353 6.57534247,47.9831461 C6.57534247,45.9446569 8.23127558,44.2921348 10.2739726,44.2921348 C12.3166696,44.2921348 13.9726027,45.9446569 13.9726027,47.9831461 C13.9726027,50.0216353 12.3166696,51.6741573 10.2739726,51.6741573 Z" id="Combined-Shape" fill="#0074F0"></path>
                    <path d="M47.6712329,71.7389333 C54.4802229,71.7389333 60,66.9337274 60,61.0062056 C60,55.0786838 54.4802229,50.2734779 47.6712329,50.2734779 C40.8622428,50.2734779 35.3424658,55.0786838 35.3424658,61.0062056 C35.3424658,64.4128105 37.1656004,67.4487241 40.0088169,69.4148541 C40.4428542,69.7149979 39.6934487,72.4053829 39.6934487,72.8875172 C39.6934487,73.3696514 42.2865851,70.6746043 42.7649523,70.8554422 C44.2684731,71.4238206 45.9275814,71.7389333 47.6712329,71.7389333 Z" id="Oval-3" stroke="#0071F0" stroke-width="1.64383562" fill="#FFFFFF"></path>
                    <path d="M41.9178082,63.1573034 C41.0099429,63.1573034 40.2739726,62.4228491 40.2739726,61.5168539 C40.2739726,60.6108587 41.0099429,59.8764045 41.9178082,59.8764045 C42.8256736,59.8764045 43.5616438,60.6108587 43.5616438,61.5168539 C43.5616438,62.4228491 42.8256736,63.1573034 41.9178082,63.1573034 Z M47.6712329,63.1573034 C46.7633675,63.1573034 46.0273973,62.4228491 46.0273973,61.5168539 C46.0273973,60.6108587 46.7633675,59.8764045 47.6712329,59.8764045 C48.5790982,59.8764045 49.3150685,60.6108587 49.3150685,61.5168539 C49.3150685,62.4228491 48.5790982,63.1573034 47.6712329,63.1573034 Z M53.4246575,63.1573034 C52.5167922,63.1573034 51.7808219,62.4228491 51.7808219,61.5168539 C51.7808219,60.6108587 52.5167922,59.8764045 53.4246575,59.8764045 C54.3325229,59.8764045 55.0684932,60.6108587 55.0684932,61.5168539 C55.0684932,62.4228491 54.3325229,63.1573034 53.4246575,63.1573034 Z" id="Combined-Shape" fill="#0074F0"></path>
                </g>
                <g id="spark" transform="translate(0.000000, 1.000000)">
                    <path d="M19.5,5 C19.7761424,5 20,5.22385763 20,5.5 L20,7.5 C20,7.77614237 19.7761424,8 19.5,8 C19.2238576,8 19,7.77614237 19,7.5 L19,5.5 C19,5.22385763 19.2238576,5 19.5,5 Z M22.6819805,6.31801948 C22.8772427,6.51328163 22.8772427,6.82986412 22.6819805,7.02512627 L21.267767,8.43933983 C21.0725048,8.63460197 20.7559223,8.63460197 20.5606602,8.43933983 C20.365398,8.24407768 20.365398,7.92749519 20.5606602,7.73223305 L21.9748737,6.31801948 C22.1701359,6.12275734 22.4867184,6.12275734 22.6819805,6.31801948 Z M24,9.5 C24,9.77614237 23.7761424,10 23.5,10 L21.5,10 C21.2238576,10 21,9.77614237 21,9.5 C21,9.22385763 21.2238576,9 21.5,9 L23.5,9 C23.7761424,9 24,9.22385763 24,9.5 Z M22.6819805,12.6819805 C22.4867184,12.8772427 22.1701359,12.8772427 21.9748737,12.6819805 L20.5606602,11.267767 C20.365398,11.0725048 20.365398,10.7559223 20.5606602,10.5606602 C20.7559223,10.365398 21.0725048,10.365398 21.267767,10.5606602 L22.6819805,11.9748737 C22.8772427,12.1701359 22.8772427,12.4867184 22.6819805,12.6819805 Z M19.5,14 C19.2238576,14 19,13.7761424 19,13.5 L19,11.5 C19,11.2238576 19.2238576,11 19.5,11 C19.7761424,11 20,11.2238576 20,11.5 L20,13.5 C20,13.7761424 19.7761424,14 19.5,14 Z M16.3180195,12.6819805 C16.1227573,12.4867184 16.1227573,12.1701359 16.3180195,11.9748737 L17.732233,10.5606602 C17.9274952,10.365398 18.2440777,10.365398 18.4393398,10.5606602 C18.634602,10.7559223 18.634602,11.0725048 18.4393398,11.267767 L17.0251263,12.6819805 C16.8298641,12.8772427 16.5132816,12.8772427 16.3180195,12.6819805 Z M15,9.5 C15,9.22385763 15.2238576,9 15.5,9 L17.5,9 C17.7761424,9 18,9.22385763 18,9.5 C18,9.77614237 17.7761424,10 17.5,10 L15.5,10 C15.2238576,10 15,9.77614237 15,9.5 Z M16.3180195,6.31801948 C16.5132816,6.12275734 16.8298641,6.12275734 17.0251263,6.31801948 L18.4393398,7.73223305 C18.634602,7.92749519 18.634602,8.24407768 18.4393398,8.43933983 C18.2440777,8.63460197 17.9274952,8.63460197 17.732233,8.43933983 L16.3180195,7.02512627 C16.1227573,6.82986412 16.1227573,6.51328163 16.3180195,6.31801948 Z" id="Rectangle-16" fill="#499DF4"></path>
                    <path d="M2.25,51.25 L2.25,49.75 C2.25,49.3357864 2.58578644,49 3,49 C3.41421356,49 3.75,49.3357864 3.75,49.75 L3.75,51.25 L5.25,51.25 C5.66421356,51.25 6,51.5857864 6,52 C6,52.4142136 5.66421356,52.75 5.25,52.75 L3.75,52.75 L3.75,54.25 C3.75,54.6642136 3.41421356,55 3,55 C2.58578644,55 2.25,54.6642136 2.25,54.25 L2.25,52.75 L0.75,52.75 C0.335786438,52.75 5.07265313e-17,52.4142136 0,52 C-5.07265313e-17,51.5857864 0.335786438,51.25 0.75,51.25 L2.25,51.25 Z" id="Combined-Shape" fill="#0D7DF1"></path>
                    <path d="M38.4926407,11.4926407 L38.4926407,9.99264069 C38.4926407,9.57842712 38.8284271,9.24264069 39.2426407,9.24264069 C39.6568542,9.24264069 39.9926407,9.57842712 39.9926407,9.99264069 L39.9926407,11.4926407 L41.4926407,11.4926407 C41.9068542,11.4926407 42.2426407,11.8284271 42.2426407,12.2426407 C42.2426407,12.6568542 41.9068542,12.9926407 41.4926407,12.9926407 L39.9926407,12.9926407 L39.9926407,14.4926407 C39.9926407,14.9068542 39.6568542,15.2426407 39.2426407,15.2426407 C38.8284271,15.2426407 38.4926407,14.9068542 38.4926407,14.4926407 L38.4926407,12.9926407 L36.9926407,12.9926407 C36.5784271,12.9926407 36.2426407,12.6568542 36.2426407,12.2426407 C36.2426407,11.8284271 36.5784271,11.4926407 36.9926407,11.4926407 L38.4926407,11.4926407 Z" id="Combined-Shape-Copy-4" fill="#4B9EF4" transform="translate(39.242641, 12.242641) rotate(45.000000) translate(-39.242641, -12.242641) "></path>
                    <circle id="Oval-8" stroke="#0478F0" stroke-width="1.5" fill="#FFFFFF" cx="20" cy="38" r="3"></circle>
                    <circle id="Oval-8-Copy" stroke="#0478F0" stroke-width="1.5" fill="#FFFFFF" cx="63" cy="2" r="2"></circle>
                    <circle id="Oval-8-Copy-2" stroke="#0478F0" stroke-width="1.5" fill="#FFFFFF" cx="95.5" cy="61.5" r="2.5"></circle>
                </g>
                <rect id="Rectangle" fill="#D8D8D8" opacity="0" x="0" y="0" width="117" height="108"></rect>
            </g>
        </g>
    </g>
</svg>