<?xml version="1.0" encoding="UTF-8"?>
<svg width="20px" height="20px" viewBox="0 0 20 20" version="1.1" xmlns="http://www.w3.org/2000/svg" xmlns:xlink="http://www.w3.org/1999/xlink">
    <!-- Generator: Sketch 48.2 (47327) - http://www.bohemiancoding.com/sketch -->
    <title>条码1</title>
    <desc>Created with Sketch.</desc>
    <defs>
        <polygon id="path-1" points="0 0.0212013962 19.9739444 0.0212013962 19.9739444 19.9999653 0 19.9999653"></polygon>
    </defs>
    <g id="3.1微信_支付2" stroke="none" stroke-width="1" fill="none" fill-rule="evenodd" transform="translate(-339.000000, -218.000000)" opacity="0.527853261">
        <g id="条码1" transform="translate(339.000000, 218.000000)">
            <mask id="mask-2" fill="white">
                <use xlink:href="#path-1"></use>
            </mask>
            <g id="Clip-2"></g>
            <path d="M3.38813179e-21,6.48325 L3.38813179e-21,1.08805556 C3.38813179e-21,1.08805556 -0.0188888889,0.0734166667 1.08105556,0.026 L6.46680556,0.026 L6.46680556,1.22077778 L1.75422222,1.21144444 C1.75422222,1.21144444 1.23275,1.28727778 1.18533333,1.72336111 C1.18533333,2.188 1.17577778,6.48336111 1.17577778,6.48336111 L-2.08260423e-05,6.48336111 L3.38813179e-21,6.48325 Z M13.5167222,0.0212013962 L18.912,0.0212222222 C18.912,0.0212222222 19.9265278,0.00233333333 19.9739444,1.10227778 L19.9739444,6.48813889 L18.7791944,6.48813889 L18.78875,1.77555556 C18.78875,1.77555556 18.7128889,1.25397222 18.2766944,1.20655556 C17.8119444,1.20655556 13.5167222,1.19711111 13.5167222,1.19711111 L13.5167222,0.0212013962 Z M-2.08260423e-05,13.5379444 L3.38813179e-21,18.9332222 C3.38813179e-21,18.9332222 -0.0188888889,19.9477778 1.08105556,19.9951944 L6.46680556,19.9951944 L6.46680556,18.8004167 L1.75411111,18.8099722 C1.75411111,18.8099722 1.23275,18.7341111 1.18522222,18.2979167 C1.18522222,17.8332778 1.17577778,13.5379444 1.17577778,13.5379444 L-2.08260423e-05,13.5379444 Z M13.5167222,19.9999653 L18.912,19.9999444 C18.912,19.9999444 19.9265278,20.0188333 19.9739444,18.919 L19.9739444,13.5331667 L18.7791944,13.5331667 L18.78875,18.2457222 C18.78875,18.2457222 18.7128889,18.7672222 18.2766944,18.8146389 C17.8119444,18.8146389 13.5167222,18.8241667 13.5167222,18.8241667 L13.5167222,19.9999653 Z M5.88315204e-17,10.6175833 L19.9739444,10.6175833 L19.9739444,9.39427778 L5.88315204e-17,9.39427778 L5.88315204e-17,10.6175833 Z M2.84277778,17.0751389 L3.80230556,17.0751389 L3.80230556,2.93505556 L2.84277778,2.93505556 L2.84277778,17.0751389 Z M5.04719444,17.0751389 L6.00683333,17.0751389 L6.00683333,2.93505556 L5.04719444,2.93505556 L5.04719444,17.0751389 Z M6.67338889,17.0751389 L7.63302778,17.0751389 L7.63302778,2.93505556 L6.67338889,2.93505556 L6.67338889,17.0751389 Z M10.7118056,17.0751389 L11.6714444,17.0751389 L11.6714444,2.93505556 L10.7118056,2.93505556 L10.7118056,17.0751389 Z M16.1174167,17.0751389 L17.0770278,17.0751389 L17.0770278,2.93505556 L16.1174167,2.93505556 L16.1174167,17.0751389 Z M8.29947222,17.0751389 L9.98697222,17.0751389 L9.98697222,2.93505556 L8.29947222,2.93505556 L8.29947222,17.0751389 Z M12.3378889,17.0751389 L15.0834444,17.0751389 L15.0834444,2.93505556 L12.3378889,2.93505556 L12.3378889,17.0751389 Z" id="Fill-1" fill="#858585" mask="url(#mask-2)"></path>
        </g>
    </g>
</svg>